PathFileType	4	(X/Y/Z)	../output/T-Pose_cam2_scaled.trc
DataRate	CameraRate	NumFrames	NumMarkers	Units	OrigDataRate	OrigDataStartFrame	OrigNumFrames
60.0	60.0	49	3	m	60.0	1	49
Frame#	Time	r_acromion			r_humerus_epicondyle			r_radius_styloid		
		X1	Y1	Z1	X2	Y2	Z2	X3	Y3	Z3	

1	0.00000	-0.00298	0.83692	0.16870	-0.23223	0.79533	0.25933	-0.53830	0.79201	0.34257
2	0.01667	-0.00210	0.83692	0.16882	-0.23226	0.79887	0.25868	-0.53979	0.79311	0.33624
3	0.03333	-0.00164	0.83692	0.16895	-0.23205	0.80051	0.25887	-0.53984	0.79340	0.33526
4	0.05000	-0.00164	0.83692	0.16908	-0.23309	0.80257	0.25712	-0.54148	0.79453	0.33100
5	0.06667	-0.00176	0.83693	0.16920	-0.23318	0.80363	0.25772	-0.54149	0.79454	0.33176
6	0.08333	-0.00155	0.83699	0.16931	-0.23265	0.80432	0.25891	-0.54082	0.79425	0.33340
7	0.10000	-0.00156	0.83701	0.16941	-0.23227	0.80461	0.26010	-0.54001	0.79375	0.33625
8	0.11667	-0.00202	0.83701	0.16952	-0.23252	0.80474	0.26077	-0.54029	0.79362	0.33680
9	0.13333	-0.00202	0.83700	0.16955	-0.23247	0.80499	0.26102	-0.54016	0.79357	0.33730
10	0.15000	-0.00202	0.83699	0.16957	-0.23202	0.80486	0.26213	-0.53933	0.79298	0.33986
11	0.16667	-0.00018	0.83700	0.16961	-0.22850	0.80372	0.26584	-0.53526	0.79135	0.34566
12	0.18333	0.00062	0.83700	0.16965	-0.22722	0.80345	0.26691	-0.53385	0.79088	0.34716
13	0.20000	0.00200	0.83700	0.16969	-0.22539	0.80317	0.26792	-0.53203	0.79052	0.34815
14	0.21667	0.00190	0.83700	0.16975	-0.22578	0.80339	0.26739	-0.53255	0.79076	0.34707
15	0.23333	0.00192	0.83700	0.16978	-0.22596	0.80358	0.26701	-0.53282	0.79094	0.34636
16	0.25000	0.00137	0.83699	0.16981	-0.22679	0.80385	0.26648	-0.53352	0.79103	0.34633
17	0.26667	0.00125	0.83698	0.16985	-0.22726	0.80410	0.26578	-0.53411	0.79134	0.34518
18	0.28333	0.00116	0.83697	0.16987	-0.22744	0.80416	0.26562	-0.53426	0.79138	0.34511
19	0.30000	0.00115	0.83696	0.16988	-0.22748	0.80420	0.26555	-0.53435	0.79142	0.34487
20	0.31667	0.00111	0.83696	0.16991	-0.22739	0.80414	0.26587	-0.53408	0.79121	0.34585
21	0.33333	0.00117	0.83696	0.16993	-0.22690	0.80385	0.26682	-0.53341	0.79078	0.34745
22	0.35000	0.00093	0.83695	0.16998	-0.22714	0.80387	0.26687	-0.53365	0.79075	0.34751
23	0.36667	0.00014	0.83694	0.17001	-0.22776	0.80379	0.26729	-0.53412	0.79055	0.34844
24	0.38333	-0.00030	0.83694	0.17004	-0.22810	0.80373	0.26752	-0.53442	0.79047	0.34885
25	0.40000	-0.00163	0.83694	0.17008	-0.22968	0.80393	0.26704	-0.53592	0.79063	0.34865
26	0.41667	-0.00165	0.83695	0.17012	-0.23005	0.80420	0.26635	-0.53656	0.79104	0.34700
27	0.43333	-0.00156	0.83696	0.17015	-0.22915	0.80364	0.26810	-0.53509	0.79012	0.35078
28	0.45000	-0.00178	0.83697	0.17018	-0.22997	0.80411	0.26687	-0.53615	0.79070	0.34869
29	0.46667	-0.00179	0.83698	0.17020	-0.23005	0.80416	0.26674	-0.53621	0.79073	0.34862
30	0.48333	-0.00174	0.83700	0.17021	-0.23011	0.80424	0.26652	-0.53638	0.79086	0.34800
31	0.50000	-0.00173	0.83702	0.17022	-0.23010	0.80423	0.26653	-0.53628	0.79079	0.34835
32	0.51667	-0.00120	0.83703	0.17026	-0.22927	0.80400	0.26717	-0.53528	0.79044	0.34963
33	0.53333	-0.00072	0.83704	0.17029	-0.22885	0.80403	0.26708	-0.53491	0.79050	0.34934
34	0.55000	-0.00053	0.83704	0.17032	-0.22845	0.80388	0.26754	-0.53433	0.79023	0.35043
35	0.56667	-0.00052	0.83704	0.17034	-0.22815	0.80366	0.26817	-0.53380	0.78987	0.35189
36	0.58333	0.00029	0.83704	0.17035	-0.22690	0.80337	0.26909	-0.53241	0.78948	0.35331
37	0.60000	0.00028	0.83704	0.17036	-0.22691	0.80341	0.26911	-0.53238	0.78949	0.35346
38	0.61667	0.00027	0.83705	0.17039	-0.22696	0.80344	0.26905	-0.53245	0.78954	0.35336
39	0.63333	0.00088	0.83705	0.17049	-0.22554	0.80282	0.27081	-0.53063	0.78889	0.35652
40	0.65000	0.00096	0.83706	0.17053	-0.22557	0.80288	0.27061	-0.53080	0.78917	0.35587
41	0.66667	0.00096	0.83706	0.17059	-0.22572	0.80296	0.27036	-0.53113	0.78949	0.35501
42	0.68333	0.00126	0.83705	0.17061	-0.22518	0.80281	0.27086	-0.53043	0.78930	0.35609
43	0.70000	0.00201	0.83705	0.17061	-0.22410	0.80258	0.27153	-0.52915	0.78904	0.35744
44	0.71667	0.00194	0.83705	0.17062	-0.22510	0.80322	0.26964	-0.53095	0.79016	0.35278
45	0.73333	0.00193	0.83706	0.17063	-0.22633	0.80409	0.26712	-0.53281	0.79140	0.34792
46	0.75000	0.00175	0.83707	0.17063	-0.22713	0.80455	0.26581	-0.53373	0.79191	0.34618
47	0.76667	0.00202	0.83707	0.17064	-0.22660	0.80435	0.26637	-0.53294	0.79158	0.34767
48	0.78333	0.00237	0.83707	0.17065	-0.22629	0.80433	0.26627	-0.53267	0.79161	0.34747
49	0.80000	0.00297	0.83708	0.17066	-0.22473	0.80357	0.26828	-0.53019	0.79039	0.35279
